<?xml version="1.0" standalone="no"?>
<!DOCTYPE svg PUBLIC "-//W3C//DTD SVG 20010904//EN"
 "http://www.w3.org/TR/2001/REC-SVG-20010904/DTD/svg10.dtd">
<svg version="1.0" xmlns="http://www.w3.org/2000/svg"
 width="589.000000pt" height="589.000000pt" viewBox="0 0 589.000000 589.000000"
 preserveAspectRatio="xMidYMid meet">
<metadata>
Created by potrace 1.14, written by Peter Selinger 2001-2017
</metadata>
<g transform="translate(0.000000,589.000000) scale(0.100000,-0.100000)"
fill="#000000" stroke="none">
<path d="M201 3603 c-6 -10 -11 -13 -11 -8 0 13 -40 15 -40 2 0 -4 -6 -5 -12
0 -7 4 -25 8 -39 8 -25 1 -27 -2 -25 -37 0 -21 -3 -38 -7 -38 -5 0 -5 -5 -1
-12 11 -18 10 -68 -1 -68 -7 0 -7 -3 0 -8 13 -9 15 -42 3 -42 -6 0 -5 -6 2
-15 10 -12 10 -15 -1 -15 -9 0 -10 -3 -4 -8 12 -8 14 -72 2 -72 -4 0 -5 -5 -1
-12 11 -18 10 -68 -1 -68 -7 0 -7 -3 0 -8 13 -9 15 -42 3 -42 -6 0 -5 -6 2
-15 10 -12 10 -15 -1 -15 -9 0 -10 -3 -4 -8 12 -8 14 -72 2 -72 -4 0 -5 -5 -1
-12 11 -18 10 -68 -1 -68 -7 0 -7 -3 0 -8 13 -9 15 -42 3 -42 -6 0 -5 -6 2
-15 10 -12 10 -15 -1 -15 -9 0 -10 -3 -4 -8 12 -8 14 -72 2 -72 -4 0 -5 -5 -1
-12 11 -18 10 -68 -1 -68 -7 0 -7 -3 0 -8 13 -9 15 -42 3 -42 -6 0 -5 -6 2
-15 10 -12 10 -15 -1 -15 -9 0 -10 -3 -4 -8 12 -8 14 -72 2 -72 -4 0 -5 -5 -1
-12 11 -18 10 -68 -1 -68 -7 0 -7 -3 0 -8 14 -10 15 -42 2 -42 -8 0 -8 -3 0
-11 6 -6 7 -25 3 -49 -4 -22 -4 -39 -1 -38 21 2 31 -4 25 -14 -6 -10 -4 -10 7
-3 17 13 88 13 108 1 9 -6 12 -5 8 1 -5 8 104 11 123 3 3 -1 10 -1 15 0 47 10
56 10 49 -1 -5 -8 -3 -9 7 -3 21 12 119 13 119 0 0 -8 3 -8 8 -1 6 10 20 11
40 5 4 -1 12 -1 17 0 47 10 56 10 49 -1 -5 -8 -3 -9 7 -3 21 12 119 13 119 0
0 -8 3 -8 8 -1 6 10 20 11 40 5 4 -1 12 -1 17 0 49 10 56 10 49 -2 -6 -10 -4
-10 7 -2 17 12 98 12 118 0 9 -6 12 -5 8 0 -7 12 133 11 152 -1 9 -5 12 -4 8
1 -7 12 133 11 152 -1 9 -5 12 -4 8 1 -7 12 133 11 152 -1 9 -5 12 -4 8 2 -5
8 104 11 123 3 3 -1 10 -1 15 0 47 10 56 10 49 -1 -5 -8 -3 -9 7 -3 21 12 119
13 119 0 0 -8 3 -8 8 -1 6 10 20 11 40 5 4 -1 12 -1 17 0 47 10 56 10 49 -1
-5 -8 -3 -9 7 -3 21 12 119 13 119 0 0 -8 3 -8 8 -1 6 10 20 11 40 5 4 -1 12
-1 17 0 49 10 56 10 49 -2 -6 -10 -4 -10 7 -2 8 6 33 10 57 9 23 -1 42 2 42 7
0 4 8 8 17 8 13 0 14 3 5 12 -9 9 -7 15 6 25 9 8 11 11 4 8 -11 -6 -13 2 -11
31 2 29 -1 38 -11 36 -10 -2 -11 0 -3 10 14 16 14 30 1 46 -7 8 -7 16 0 25 6
6 10 15 9 19 -1 3 2 10 7 15 5 5 6 2 1 -6 -6 -10 -4 -12 4 -6 9 5 10 10 2 18
-13 13 -43 19 -36 6 4 -5 -1 -6 -9 -3 -9 3 -13 11 -9 18 3 6 3 8 -2 4 -4 -4
-15 -2 -24 5 -14 10 -14 10 -3 -4 10 -14 10 -18 -3 -23 -9 -3 -14 -2 -11 3 3
5 -1 12 -10 15 -8 3 -12 2 -9 -3 3 -5 1 -12 -5 -16 -5 -3 -10 -2 -10 3 0 6 -7
13 -16 16 -8 3 -13 2 -10 -3 3 -5 -1 -12 -10 -15 -8 -3 -13 -2 -10 2 3 4 -5
14 -17 22 -20 12 -21 12 -9 -3 9 -10 10 -17 2 -22 -5 -3 -10 -2 -10 3 0 6 -14
9 -31 8 -18 -1 -34 4 -39 13 -7 11 -9 12 -10 3 0 -7 -5 -10 -12 -6 -6 4 -8 3
-5 -3 4 -6 0 -14 -9 -17 -8 -3 -13 -2 -10 3 3 5 -3 11 -14 14 -11 3 -18 2 -15
-3 3 -4 -2 -11 -11 -14 -8 -3 -13 -2 -10 3 3 5 -1 11 -9 15 -8 3 -14 2 -14 -2
3 -21 -3 -24 -17 -6 -8 10 -13 14 -10 8 3 -7 -1 -15 -10 -18 -8 -3 -13 -2 -9
3 3 5 -10 8 -27 7 -18 -1 -42 5 -52 14 -15 12 -18 12 -11 1 6 -11 4 -13 -9 -8
-9 4 -15 3 -12 -2 3 -5 -1 -12 -10 -15 -8 -3 -13 -2 -10 3 3 5 -1 12 -10 15
-8 3 -12 2 -9 -3 3 -5 1 -12 -5 -16 -5 -3 -10 -2 -10 3 0 6 -7 13 -16 16 -8 3
-13 2 -10 -3 3 -5 -1 -12 -10 -15 -8 -3 -13 -2 -10 2 3 4 -5 14 -17 22 -20 12
-21 12 -9 -3 9 -10 10 -17 2 -22 -5 -3 -10 -2 -10 3 0 5 -12 8 -27 8 -16 -1
-38 2 -51 6 -13 5 -21 4 -18 -1 3 -5 -1 -12 -10 -15 -8 -3 -13 -2 -10 3 3 5
-3 11 -14 14 -11 3 -18 2 -15 -3 3 -4 -2 -10 -10 -14 -8 -3 -17 0 -21 6 -5 7
-2 8 6 3 9 -6 11 -4 5 5 -6 10 -11 9 -22 -5 -12 -18 -19 -10 -14 18 1 5 -3 5
-9 2 -6 -4 -9 -14 -6 -22 4 -9 2 -11 -7 -6 -6 4 -26 8 -42 8 -17 1 -36 4 -42
8 -6 4 -14 4 -17 -1 -6 -10 -71 -6 -88 4 -6 4 -8 3 -5 -3 4 -6 0 -14 -9 -17
-8 -3 -13 -2 -10 3 3 5 -3 11 -14 14 -11 3 -18 2 -15 -3 3 -4 -2 -11 -11 -14
-8 -3 -13 -2 -10 3 3 5 -1 11 -9 15 -8 3 -14 2 -14 -2 3 -21 -3 -24 -17 -6 -8
10 -13 14 -10 8 3 -7 -1 -15 -10 -18 -8 -3 -13 -2 -9 3 3 5 -10 8 -27 7 -18
-1 -42 5 -52 14 -15 12 -18 12 -11 1 6 -11 4 -13 -9 -8 -9 4 -15 3 -12 -2 3
-5 -1 -12 -10 -15 -8 -3 -13 -2 -10 3 3 5 -1 12 -10 15 -8 3 -12 2 -9 -3 3 -5
1 -12 -5 -16 -5 -3 -10 -2 -10 3 0 6 -7 13 -16 16 -8 3 -13 2 -10 -3 3 -5 -1
-12 -10 -15 -8 -3 -13 -2 -10 2 3 4 -5 14 -17 22 -20 12 -21 12 -9 -3 9 -10
10 -17 2 -22 -5 -3 -10 -2 -10 3 0 6 -14 9 -31 8 -18 -1 -34 4 -39 13 -7 11
-9 12 -10 3 0 -7 -5 -10 -12 -6 -6 4 -8 3 -5 -3 4 -6 0 -14 -9 -17 -8 -3 -13
-2 -10 3 3 5 -3 11 -14 14 -11 3 -18 2 -15 -3 3 -4 -2 -11 -11 -14 -8 -3 -13
-2 -10 3 3 5 -1 11 -9 15 -8 3 -14 2 -14 -2 3 -21 -3 -24 -17 -6 -8 10 -13 14
-10 8 3 -7 -1 -15 -10 -18 -8 -3 -13 -2 -9 3 3 5 -10 8 -27 7 -18 -1 -42 5
-52 14 -15 12 -18 12 -11 1 6 -11 4 -13 -9 -8 -9 4 -15 3 -12 -2 3 -5 -1 -12
-10 -15 -8 -3 -13 -2 -10 3 3 5 -1 12 -10 15 -8 3 -13 2 -10 -3 3 -5 -1 -12
-10 -15 -8 -3 -13 -2 -10 3 3 5 -1 12 -10 15 -8 3 -13 2 -10 -3 10 -15 -18
-18 -44 -4 -14 7 -19 13 -11 13 11 0 11 3 1 15 -10 12 -9 15 6 16 18 0 18 1
-1 9 -11 5 -15 9 -9 9 14 1 13 33 -1 43 -6 5 -5 8 3 8 16 0 16 27 0 33 -7 3
-4 6 7 7 l20 1 -20 9 c-11 5 -14 9 -7 9 6 1 12 6 12 12 0 5 -4 8 -9 5 -5 -4
-8 2 -6 11 2 10 4 22 4 26 1 5 6 5 13 1 8 -5 9 -2 4 11 -5 15 -4 16 9 5 12
-10 15 -10 15 1 0 9 3 10 11 2 7 -7 21 -8 40 -3 16 5 27 6 25 2 -6 -10 159 -6
174 3 8 5 11 4 7 -1 -7 -11 135 -10 154 1 8 5 10 4 5 -4 -6 -8 0 -10 18 -5 16
4 32 1 41 -6 13 -11 14 -10 10 3 -6 13 -1 14 29 7 25 -5 36 -4 36 4 0 6 5 4
10 -4 8 -12 11 -13 19 -1 5 8 11 9 15 3 3 -5 17 -7 31 -4 16 3 25 0 25 -9 0
-8 6 -5 15 7 8 11 15 14 15 7 0 -7 5 -13 11 -13 5 0 7 4 4 10 -3 6 1 7 9 4 9
-3 13 -11 10 -18 -3 -6 2 -2 10 8 9 11 16 16 16 10 0 -11 132 -10 150 1 9 5
11 4 6 -3 -5 -8 0 -12 13 -12 12 0 21 5 21 11 0 5 -5 7 -12 3 -7 -4 -8 -3 -4
4 4 7 17 12 29 12 14 0 18 3 10 8 -6 4 -14 20 -17 35 -3 16 -1 25 5 22 5 -4 6
-11 3 -17 -4 -6 -2 -8 4 -5 17 11 2 46 -16 40 -12 -3 -13 -2 -5 4 7 5 11 22 9
38 -2 17 1 36 8 44 8 12 8 13 -2 7 -9 -6 -12 -1 -10 16 2 12 7 29 12 37 6 9 5
12 -2 7 -6 -3 -13 -2 -17 4 -4 7 -12 7 -26 0 -10 -6 -19 -7 -19 -2 0 5 -7 9
-15 9 -8 0 -12 -4 -9 -9 3 -4 1 -8 -5 -8 -5 0 -12 6 -14 13 -4 9 -6 9 -6 -1
-1 -10 -6 -10 -21 -2 -14 7 -20 7 -20 0 0 -5 -5 -10 -11 -10 -5 0 -7 4 -4 10
4 6 -2 7 -17 1 -15 -5 -31 -5 -41 0 -12 7 -17 6 -17 -3 0 -9 -3 -9 -10 2 -6
10 -10 11 -10 3 0 -9 -7 -10 -22 -5 -27 9 -70 8 -87 -2 -6 -4 -11 -3 -11 2 0
5 -7 9 -15 9 -8 0 -12 -4 -9 -9 3 -4 1 -8 -5 -8 -5 0 -12 6 -14 13 -4 9 -6 9
-6 -1 -1 -10 -6 -10 -21 -2 -14 7 -20 7 -20 0 0 -5 -5 -10 -11 -10 -5 0 -7 4
-4 10 4 6 -2 7 -17 1 -15 -5 -31 -5 -41 0 -12 7 -17 6 -17 -3 0 -9 -3 -9 -10
2 -6 10 -10 11 -10 3 0 -9 -7 -10 -22 -5 -27 9 -70 8 -87 -2 -6 -4 -11 -3 -11
2 0 5 -7 9 -15 9 -8 0 -12 -4 -9 -9 3 -4 1 -8 -5 -8 -5 0 -12 6 -14 13 -4 9
-6 9 -6 -1 -1 -10 -6 -10 -21 -2 -14 7 -20 7 -20 0 0 -5 -5 -10 -11 -10 -5 0
-8 3 -6 8 3 4 -6 7 -19 7 -13 0 -24 -3 -24 -7 0 -5 -5 -8 -11 -8 -5 0 -8 3 -6
8 3 4 -10 7 -28 7 -18 0 -31 -3 -29 -7 3 -4 0 -8 -5 -8 -6 0 -11 5 -11 10 0 6
-5 10 -11 10 -5 0 -8 -4 -5 -8 3 -5 -1 -9 -9 -9 -8 0 -11 5 -8 10 3 5 -1 13
-8 18 -11 7 -11 9 -1 9 10 0 10 5 2 20 -9 16 -8 20 7 21 16 0 16 1 -2 9 -11 5
-14 9 -7 9 10 1 10 6 2 21 -8 15 -8 20 2 20 9 0 9 3 -2 10 -11 7 -11 10 -2 10
7 0 10 4 7 10 -11 18 -14 51 -4 45 5 -4 6 -11 3 -17 -4 -7 -2 -8 4 -4 9 5 9
13 2 26 -13 25 -13 28 8 32 9 2 22 -3 28 -11 9 -12 14 -11 32 7 15 15 22 18
22 8 0 -8 7 -17 16 -20 13 -5 14 -4 6 7 -9 10 -8 14 3 14 8 0 15 -4 15 -9 0
-4 5 -8 11 -8 5 0 8 4 5 8 -3 5 1 9 9 9 8 0 15 -7 15 -16 0 -10 3 -12 8 -5 10
15 54 26 45 11 -4 -7 1 -6 10 2 9 7 17 10 17 5 0 -11 51 -10 68 0 8 4 12 0 12
-11 0 -11 3 -14 8 -7 10 15 54 26 45 11 -4 -7 1 -6 10 2 9 7 17 10 17 5 0 -11
51 -10 68 0 8 4 12 0 12 -11 0 -11 3 -14 8 -7 10 15 54 25 46 11 -3 -7 2 -3
10 7 13 16 16 17 16 4 0 -9 7 -19 16 -22 13 -5 14 -4 6 7 -9 10 -8 14 3 14 8
0 15 -4 15 -9 0 -4 5 -8 11 -8 5 0 8 4 5 8 -3 5 1 9 9 9 8 0 15 -7 15 -16 0
-10 3 -12 8 -5 10 15 54 26 45 11 -4 -7 1 -6 10 2 9 7 17 10 17 5 0 -11 51
-10 68 0 8 4 12 0 12 -11 0 -11 3 -14 8 -6 4 6 22 13 40 16 28 5 32 3 28 -10
-5 -13 -4 -14 8 -4 8 7 30 13 48 14 26 1 34 7 36 22 1 13 -2 15 -6 8 -5 -7 -8
5 -7 27 0 22 3 40 8 40 4 0 7 -5 7 -12 0 -6 3 -8 7 -5 3 4 -2 17 -13 29 -10
12 -14 19 -8 15 14 -8 12 31 -3 59 -10 16 -9 21 2 21 8 0 11 -7 7 -16 -6 -17
-4 -16 18 13 8 11 10 17 3 13 -7 -5 -17 2 -24 15 -12 22 -11 22 7 8 18 -14 18
-13 -1 8 -11 13 -21 19 -23 13 -2 -6 -8 -8 -14 -5 -6 4 -27 7 -47 8 -20 0 -41
4 -48 9 -7 4 -16 0 -22 -10 -6 -10 -11 -13 -11 -7 0 6 -12 10 -27 8 -37 -4
-97 -6 -103 -4 -20 7 -66 4 -72 -4 -5 -7 -8 -7 -8 -1 0 6 -15 9 -32 9 -18 -1
-38 3 -45 8 -7 6 -15 3 -22 -9 -6 -10 -11 -13 -11 -8 0 14 -113 13 -122 0 -5
-7 -8 -7 -8 0 0 13 -63 13 -72 0 -5 -7 -8 -7 -8 0 0 6 -15 9 -32 9 -18 -1 -38
3 -45 8 -7 6 -15 3 -22 -9 -6 -10 -11 -13 -11 -7 0 6 -12 10 -27 8 -37 -4 -97
-6 -103 -4 -20 7 -66 4 -72 -4 -5 -7 -8 -7 -8 -1 0 6 -15 9 -32 9 -18 -1 -38
3 -45 8 -7 6 -15 3 -22 -9z m186 -265 c-3 -8 -6 -5 -6 6 -1 11 2 17 5 13 3 -3
4 -12 1 -19z"/>
<path d="M1733 3613 c6 -9 -14 -12 -81 -10 -91 2 -123 -8 -99 -32 8 -8 8 -11
0 -11 -13 0 -12 -32 2 -42 6 -5 4 -8 -5 -8 -13 0 -13 -1 0 -10 8 -5 10 -10 5
-10 -12 0 -13 -40 -1 -58 4 -7 4 -12 -1 -12 -4 0 -8 -13 -8 -30 0 -17 5 -30
13 -30 6 0 12 -4 12 -10 0 -5 -8 -7 -17 -3 -15 5 -14 3 2 -10 19 -15 40 -14
31 2 -3 4 1 8 9 8 8 0 11 -5 8 -11 -4 -6 1 -5 10 3 15 12 17 11 17 -5 0 -11 3
-15 8 -8 10 15 54 26 45 11 -4 -7 1 -6 10 2 9 7 17 10 17 5 0 -11 51 -10 68 0
8 4 12 0 12 -11 0 -11 3 -14 8 -7 10 15 54 25 46 11 -3 -7 2 -3 10 7 13 16 16
17 16 4 0 -9 7 -19 16 -22 13 -5 14 -4 6 7 -9 10 -8 14 3 14 8 0 15 -4 15 -9
0 -4 5 -8 11 -8 5 0 8 4 5 8 -3 5 1 9 9 9 8 0 15 -7 15 -16 0 -10 3 -12 8 -5
10 15 54 26 45 11 -4 -7 1 -6 10 2 9 7 17 10 17 5 0 -11 51 -10 68 0 8 4 12 0
12 -11 0 -11 3 -14 8 -7 10 15 54 26 45 11 -4 -7 1 -6 10 2 9 7 17 10 17 5 0
-11 51 -10 68 0 8 4 12 0 12 -11 0 -11 3 -14 8 -7 10 15 54 26 45 11 -4 -7 1
-6 10 2 11 8 17 9 17 3 0 -6 6 -9 13 -7 6 2 25 7 40 9 23 4 28 2 23 -11 -5
-12 -3 -13 6 -6 7 6 23 13 35 15 17 5 20 2 17 -11 -3 -9 2 -5 10 9 12 20 15
22 16 7 0 -10 4 -16 9 -12 6 3 9 -15 9 -43 -1 -26 2 -53 6 -60 4 -7 4 -12 -1
-12 -4 0 -8 -24 -8 -54 0 -30 3 -52 8 -49 4 2 7 2 7 -2 0 -12 -45 -22 -52 -11
-6 8 -8 7 -8 -2 0 -10 -5 -10 -20 -2 -14 7 -20 7 -20 0 0 -5 -5 -10 -11 -10
-5 0 -7 4 -4 10 4 6 -2 7 -17 1 -15 -5 -31 -5 -41 0 -12 7 -17 6 -17 -3 0 -9
-3 -9 -10 2 -6 10 -10 11 -10 3 0 -9 -7 -10 -22 -5 -27 9 -70 8 -87 -2 -6 -4
-11 -3 -11 2 0 5 -7 9 -15 9 -8 0 -12 -4 -9 -9 3 -4 1 -8 -5 -8 -5 0 -12 6
-14 13 -4 9 -6 9 -6 -1 -1 -10 -6 -10 -21 -2 -14 7 -20 7 -20 0 0 -5 -5 -10
-11 -10 -5 0 -7 4 -4 10 4 6 -2 7 -17 1 -15 -5 -31 -5 -41 0 -12 7 -17 6 -17
-3 0 -9 -3 -9 -10 2 -6 10 -10 11 -10 3 0 -9 -7 -10 -22 -5 -27 9 -70 8 -87
-2 -6 -4 -11 -3 -11 2 0 5 -7 9 -15 9 -8 0 -12 -4 -9 -9 3 -4 1 -8 -5 -8 -5 0
-12 6 -14 13 -4 9 -6 9 -6 -1 -1 -10 -6 -10 -21 -2 -14 7 -20 7 -20 0 0 -5 -5
-10 -11 -10 -5 0 -7 4 -4 10 4 6 -2 7 -17 1 -15 -5 -31 -5 -41 0 -12 7 -17 6
-17 -3 0 -9 -3 -9 -10 2 -6 10 -10 11 -10 3 0 -8 -7 -10 -22 -5 -13 4 -32 6
-43 6 -11 -1 -33 -2 -48 -3 -18 -1 -27 -6 -24 -13 2 -7 -3 -19 -12 -26 -14
-11 -14 -11 1 -6 15 5 16 2 8 -25 -5 -19 -5 -29 1 -26 5 4 9 1 9 -4 0 -6 -5
-11 -11 -11 -8 0 -8 -5 1 -15 8 -10 9 -15 1 -15 -7 0 -8 -8 -1 -26 7 -16 7
-23 0 -19 -14 9 -12 -9 2 -23 9 -9 9 -12 0 -12 -9 0 -8 -8 4 -25 16 -24 43
-37 28 -13 -5 7 -3 8 7 3 7 -5 26 -8 41 -7 16 1 28 -3 28 -10 0 -6 7 -3 15 8
8 11 15 14 15 7 0 -7 5 -13 11 -13 5 0 7 4 4 10 -3 6 1 7 9 4 9 -3 13 -11 10
-18 -3 -6 2 -2 10 8 9 11 16 16 16 10 0 -11 132 -10 150 1 8 5 11 4 7 -1 -7
-11 135 -10 154 1 8 5 10 4 5 -4 -6 -8 0 -10 18 -5 16 4 32 1 41 -6 13 -11 14
-10 10 3 -6 13 -1 14 29 7 25 -5 36 -4 36 4 0 6 5 4 10 -4 8 -12 11 -13 19 -1
5 8 11 9 15 3 3 -5 17 -7 31 -4 16 3 25 0 25 -9 0 -8 6 -5 15 7 8 11 15 14 15
7 0 -7 5 -13 11 -13 5 0 7 4 4 10 -3 6 1 7 9 4 9 -3 13 -11 10 -18 -3 -6 2 -2
10 8 9 11 16 16 16 10 0 -5 31 -8 70 -8 l69 1 -2 -36 c-1 -20 2 -42 6 -48 5
-7 5 -13 0 -13 -12 0 -10 -94 2 -102 6 -5 5 -8 -3 -8 -9 0 -10 -5 -3 -18 5
-10 6 -23 2 -30 -8 -14 -7 -54 3 -70 4 -7 4 -12 -1 -12 -12 0 -10 -94 2 -102
6 -5 6 -8 -1 -8 -12 0 -12 -29 0 -48 5 -8 20 -11 42 -8 23 4 34 2 34 -7 0 -8
3 -8 8 -2 6 10 20 11 40 5 4 -1 12 -1 17 0 41 9 50 8 57 -3 6 -9 8 -9 8 0 0 6
9 10 20 8 11 -2 22 1 25 6 4 5 12 6 18 2 7 -3 3 3 -7 15 -13 15 -15 22 -6 22
9 0 7 7 -6 22 -10 12 -14 18 -7 14 16 -9 15 86 -1 96 -8 5 -7 8 2 8 7 0 10 5
7 10 -3 6 -1 10 6 10 7 0 5 8 -7 22 -10 12 -14 18 -7 14 9 -5 12 8 11 44 0 31
-4 50 -11 50 -7 0 -4 5 6 11 13 8 15 14 7 29 -9 16 -8 19 7 14 14 -5 15 -4 4
4 -8 5 -15 24 -16 40 -2 24 1 29 14 24 14 -5 14 -4 -1 11 -13 13 -15 24 -8 47
6 20 5 28 -1 24 -13 -8 -7 29 6 38 6 5 5 8 -2 8 -7 0 -10 7 -7 15 4 8 1 15 -6
15 -7 0 -2 8 11 18 17 15 19 21 9 27 -9 5 -11 4 -6 -3 4 -7 3 -12 -3 -12 -5 0
-8 19 -5 45 4 33 2 45 -8 45 -9 0 -9 3 -2 8 14 10 27 45 13 37 -13 -9 -8 27 6
37 6 5 4 8 -5 8 -13 0 -13 1 0 10 10 6 11 10 3 10 -7 0 -13 5 -13 11 0 5 5 7
12 3 7 -4 8 -3 4 5 -4 6 -9 27 -11 46 -2 28 0 32 14 27 14 -5 14 -4 -1 12 -14
14 -16 22 -7 38 6 11 7 18 2 15 -5 -3 -9 3 -9 13 0 11 6 16 16 13 12 -4 13 -3
1 5 -8 5 -15 24 -16 40 -2 24 1 29 14 24 14 -5 14 -4 -1 11 -13 13 -15 24 -8
47 5 19 5 28 -1 25 -16 -10 -10 28 9 49 14 18 15 19 0 8 -14 -12 -16 -10 -11
8 3 11 2 20 -3 19 -5 -1 -13 0 -19 1 -32 8 -211 3 -217 -5 -5 -7 -8 -7 -8 0 0
6 -15 9 -32 9 -18 -1 -38 3 -45 8 -7 6 -15 3 -22 -9 -6 -10 -11 -13 -11 -7 0
6 -12 10 -27 8 -37 -4 -97 -6 -103 -4 -20 7 -66 4 -72 -4 -5 -7 -8 -7 -8 -1 0
6 -15 9 -32 9 -18 -1 -38 3 -45 8 -7 6 -15 3 -22 -9 -6 -10 -11 -13 -11 -8 0
14 -113 13 -122 0 -5 -7 -8 -7 -8 0 0 13 -63 13 -72 0 -5 -7 -8 -7 -8 0 0 6
-15 9 -32 9 -18 -1 -38 3 -45 8 -7 6 -15 3 -22 -9 -6 -10 -11 -13 -11 -6 0 7
-7 10 -15 7 -8 -4 -23 0 -32 7 -11 9 -14 9 -10 2z"/>
<path d="M3174 3613 c5 -10 -9 -12 -63 -10 -39 1 -71 -1 -71 -6 0 -4 -4 -6 -8
-3 -10 6 -9 -25 2 -42 4 -7 2 -12 -4 -12 -8 0 -8 -6 0 -20 9 -17 8 -20 -7 -20
-12 0 -14 -3 -6 -8 7 -4 14 -24 16 -45 3 -29 1 -37 -12 -38 -12 0 -11 -2 4 -9
11 -5 14 -9 7 -9 -7 -1 -10 -5 -7 -11 11 -17 14 -51 5 -45 -5 3 -11 1 -15 -5
-3 -5 2 -10 12 -10 10 0 14 -4 8 -8 -12 -8 -13 -62 -2 -79 5 -8 4 -13 -3 -13
-8 0 -8 -6 0 -20 9 -17 8 -20 -7 -20 -12 0 -14 -3 -6 -8 7 -4 14 -24 16 -45 3
-29 1 -37 -12 -38 -12 0 -11 -2 4 -9 11 -5 14 -9 7 -9 -7 -1 -10 -5 -7 -11 11
-17 14 -51 5 -45 -5 3 -11 1 -15 -5 -3 -5 2 -10 12 -10 10 0 14 -4 8 -8 -12
-8 -13 -62 -2 -79 5 -8 4 -13 -3 -13 -8 0 -8 -6 0 -20 9 -17 8 -20 -7 -20 -12
0 -14 -3 -6 -8 7 -4 14 -24 16 -45 3 -29 1 -37 -12 -38 -12 0 -11 -2 4 -9 11
-5 14 -9 7 -9 -7 -1 -10 -5 -7 -11 11 -18 14 -51 4 -45 -13 9 -11 -9 3 -23 9
-9 9 -12 0 -12 -10 0 -10 -5 -2 -20 9 -16 8 -20 -7 -20 -15 0 -15 -2 3 -15 14
-11 15 -14 4 -15 -13 0 -13 -1 0 -10 11 -7 11 -10 2 -10 -10 0 -10 -5 -1 -21
8 -15 8 -19 0 -15 -15 10 -14 -7 1 -22 9 -9 9 -12 0 -12 -10 0 -10 -5 -2 -20
9 -16 8 -20 -7 -20 -15 0 -15 -2 3 -15 14 -11 15 -14 4 -15 -13 0 -13 -1 0
-10 12 -8 12 -10 1 -10 -11 0 -11 -3 -1 -15 9 -10 9 -15 1 -15 -6 0 -11 -7
-11 -16 0 -9 5 -12 12 -8 8 5 9 2 5 -9 -6 -17 5 -31 17 -20 12 12 116 11 116
-1 0 -7 3 -7 8 -1 10 14 65 15 74 1 6 -8 8 -7 8 2 0 7 4 11 9 7 5 -3 12 -2 15
3 6 10 8 100 4 195 -2 37 -1 67 2 67 5 0 4 39 -2 148 -2 23 2 42 7 42 6 0 3 5
-5 10 -9 6 -11 10 -3 10 7 0 10 7 7 15 -7 18 17 20 35 3 10 -11 11 -9 5 6 -6
15 -4 17 6 11 19 -12 130 -13 154 -2 13 6 16 6 11 -2 -5 -8 1 -10 19 -5 16 4
32 1 41 -6 13 -11 14 -10 10 3 -6 13 -1 14 29 7 24 -5 37 -4 40 4 3 7 5 7 5
-1 1 -7 6 -13 12 -13 5 0 7 5 3 12 -5 7 -3 8 7 3 7 -5 26 -8 41 -7 16 1 28 -3
28 -10 0 -6 7 -3 15 8 8 11 15 14 15 7 0 -7 5 -13 11 -13 5 0 7 4 4 10 -3 6 1
7 9 4 9 -3 13 -11 10 -18 -3 -6 2 -2 10 8 9 11 16 14 16 7 0 -7 5 -9 10 -6 6
4 18 1 26 -6 12 -10 13 -9 7 7 -6 17 -5 17 10 5 12 -9 17 -10 17 -2 0 7 5 9
12 5 7 -5 25 -7 40 -6 17 1 28 -3 28 -10 0 -8 5 -5 11 5 8 13 14 15 29 7 25
-13 33 -13 24 3 -5 8 -2 8 9 -2 12 -9 17 -10 17 -2 0 7 5 9 13 4 6 -4 22 -6
35 -4 13 1 22 -3 22 -11 0 -10 3 -9 10 2 8 12 13 13 29 3 18 -11 19 -10 14 5
-5 14 -3 15 8 5 16 -16 33 -17 23 -2 -5 8 -1 8 14 0 17 -9 22 -8 27 9 3 11 3
30 -1 42 -6 21 -5 22 12 8 18 -14 18 -14 0 8 -14 17 -16 22 -5 22 11 0 11 2
-1 10 -12 8 -13 11 -1 19 9 6 10 11 2 15 -6 4 -9 11 -6 16 11 18 12 70 1 70
-7 0 -8 3 0 8 6 4 4 13 -8 25 -10 9 -18 14 -18 10 0 -10 -74 -8 -91 2 -8 6
-10 4 -4 -4 6 -10 3 -11 -14 -2 -16 9 -21 9 -21 -1 0 -9 -3 -9 -10 2 -5 8 -10
11 -10 5 0 -5 -24 -10 -54 -10 -30 0 -52 3 -50 7 2 4 -9 3 -25 -2 -21 -6 -31
-5 -35 3 -3 8 -5 8 -5 -1 -1 -10 -6 -10 -22 -1 -17 9 -20 8 -13 -3 6 -11 5
-11 -8 0 -13 10 -17 10 -20 0 -4 -10 -10 -10 -31 -1 -16 8 -27 9 -27 3 0 -6
-5 -10 -11 -10 -5 0 -8 3 -6 8 3 4 -6 7 -19 7 -13 0 -24 -3 -24 -7 0 -5 -5 -8
-11 -8 -5 0 -8 3 -6 8 3 4 -5 7 -18 7 -13 0 -21 -3 -18 -7 6 -11 -5 -10 -28 2
-13 7 -19 7 -19 0 0 -5 -5 -10 -11 -10 -5 0 -7 4 -4 10 4 6 -2 7 -17 1 -15 -5
-31 -5 -41 0 -12 7 -17 6 -17 -3 0 -9 -3 -9 -10 2 -6 10 -10 11 -10 3 0 -7 -7
-13 -16 -13 -8 0 -13 4 -9 9 3 6 -6 6 -24 1 -21 -6 -31 -5 -35 3 -3 8 -5 8 -5
-1 -1 -10 -6 -10 -22 -1 -17 9 -20 8 -13 -3 6 -11 5 -11 -9 1 -11 9 -17 10
-17 2 0 -6 -5 -11 -11 -11 -5 0 -7 5 -3 11 4 8 0 8 -15 0 -16 -9 -21 -9 -21 1
0 8 -3 9 -8 3 -4 -5 -14 -11 -22 -13 -8 -2 -12 -1 -8 3 3 4 2 19 -2 35 -6 20
-5 30 3 33 9 3 9 8 1 16 -7 7 -8 29 -4 56 4 24 3 42 -2 39 -4 -3 -8 0 -8 5 0
6 5 11 11 11 8 0 8 4 1 13 -7 8 -7 17 1 27 14 18 57 25 57 9 0 -5 -5 -7 -12
-3 -7 5 -8 3 -3 -6 7 -11 10 -10 19 1 14 18 78 18 99 1 13 -11 17 -11 24 0 4
7 16 14 25 14 10 1 16 -2 13 -5 -2 -4 2 -8 10 -8 8 0 12 4 9 9 -7 11 3 10 28
-3 15 -8 19 -8 14 0 -4 6 -2 11 3 11 6 0 11 -8 12 -17 0 -15 2 -15 7 -3 8 17
112 24 112 8 0 -5 -5 -6 -12 -2 -7 5 -8 3 -3 -6 7 -11 10 -10 19 1 11 14 50
23 41 10 -2 -4 2 -8 10 -8 8 0 12 4 9 9 -7 11 3 10 28 -3 15 -8 19 -8 14 0 -4
6 -2 11 3 11 6 0 11 -8 12 -17 0 -15 2 -15 7 -3 8 17 112 24 112 8 0 -5 -5 -6
-12 -2 -7 5 -8 3 -3 -6 7 -11 10 -10 19 1 11 14 50 23 41 10 -2 -4 2 -8 10 -8
8 0 12 4 9 9 -7 11 3 10 28 -3 15 -8 19 -8 14 0 -4 6 -2 11 3 11 6 0 11 -8 12
-17 0 -15 2 -15 7 -3 8 17 112 24 112 8 0 -5 -5 -6 -12 -2 -7 5 -8 3 -3 -6 6
-10 10 -10 20 3 9 12 14 14 23 5 9 -9 12 -9 12 0 0 6 6 9 14 6 19 -7 41 32 23
40 -9 5 -9 7 1 12 6 3 9 11 5 17 -11 18 -10 57 2 57 5 0 4 4 -4 9 -9 6 -10 11
-2 15 6 4 9 11 7 15 -3 4 -6 26 -7 49 -2 23 -5 42 -8 43 -4 0 -16 2 -29 5 -13
2 -21 0 -18 -4 3 -5 -1 -9 -9 -9 -8 0 -12 3 -10 7 7 11 -119 6 -127 -5 -5 -7
-8 -7 -8 0 0 6 -15 9 -32 9 -18 -1 -38 3 -45 8 -7 6 -15 3 -22 -9 -6 -10 -11
-13 -11 -8 0 13 -40 15 -40 2 0 -4 -6 -5 -12 0 -18 11 -32 10 -40 -2 -5 -6 -8
-7 -8 0 0 7 -60 10 -167 9 -93 -1 -173 3 -180 8 -7 6 -15 3 -22 -9 -6 -10 -11
-13 -11 -8 0 14 -113 13 -122 0 -5 -7 -8 -7 -8 0 0 6 -15 9 -32 9 -18 -1 -38
3 -45 8 -7 6 -15 3 -22 -9 -6 -10 -11 -13 -11 -6 0 7 -7 10 -15 7 -8 -4 -23 0
-32 7 -11 10 -14 10 -9 2z m296 -273 c0 -5 -2 -10 -4 -10 -3 0 -8 5 -11 10 -3
6 -1 10 4 10 6 0 11 -4 11 -10z"/>
<path d="M4530 3598 c0 -4 -8 -5 -19 -3 -23 4 -23 -24 -1 -42 13 -11 13 -12
-3 -13 -10 0 -15 -5 -12 -10 4 -6 11 -8 16 -5 5 4 5 -5 -1 -20 -12 -31 -12
-38 -2 -32 4 3 7 -5 7 -18 0 -13 -3 -21 -7 -18 -10 5 -10 -11 -1 -21 10 -10
11 -46 1 -40 -4 3 -8 -2 -8 -11 0 -9 4 -14 8 -11 11 7 8 -31 -3 -41 -4 -5 -5
-1 0 7 5 9 4 12 -1 7 -15 -14 -10 -41 11 -54 19 -12 19 -12 -3 -13 -13 0 -20
-4 -17 -10 4 -6 10 -8 14 -6 3 3 7 -4 7 -14 0 -10 -4 -16 -8 -14 -4 3 -8 -2
-8 -11 0 -9 3 -14 8 -12 4 3 7 -5 7 -18 0 -13 -3 -21 -7 -18 -5 2 -8 0 -8 -6
0 -5 4 -12 9 -15 5 -3 7 -15 4 -26 -3 -11 -10 -17 -17 -13 -6 4 -5 -1 2 -10 8
-9 13 -26 12 -39 -1 -13 -1 -25 0 -28 6 -17 5 -48 -2 -44 -4 3 -8 -2 -8 -11 0
-9 3 -14 8 -12 4 3 7 -5 7 -18 0 -13 -3 -21 -7 -18 -10 5 -10 -11 -1 -21 4 -3
7 -15 8 -25 1 -13 -3 -17 -14 -14 -9 3 -2 -4 14 -14 30 -20 55 -20 55 0 0 5
10 2 22 -9 12 -10 18 -14 14 -7 -5 9 8 12 44 11 29 0 50 -4 50 -11 0 -6 7 -2
15 9 8 11 15 14 15 7 0 -7 5 -13 11 -13 5 0 7 4 4 10 -3 6 1 7 9 4 9 -3 13
-11 10 -18 -3 -6 2 -2 10 8 9 11 16 16 16 10 0 -11 132 -10 150 1 9 5 11 4 6
-4 -6 -8 0 -10 18 -5 16 4 32 1 41 -6 13 -11 14 -10 10 3 -6 13 -1 14 29 7 25
-5 36 -4 36 4 0 6 5 4 10 -4 8 -12 11 -13 19 -1 5 8 11 9 15 3 3 -5 17 -7 31
-4 16 3 25 0 25 -9 0 -8 6 -5 15 7 8 11 15 14 15 7 0 -7 5 -13 11 -13 5 0 7 4
4 10 -3 6 1 7 9 4 9 -3 13 -11 10 -18 -3 -6 2 -2 10 8 9 11 16 16 16 10 0 -11
92 -10 110 1 9 5 11 4 6 -3 -5 -8 0 -12 13 -12 10 0 22 6 24 13 4 9 6 9 6 0 1
-7 8 -10 18 -6 12 5 14 3 8 -8 -7 -12 -6 -12 7 -1 21 17 30 -4 15 -33 -9 -17
-8 -18 4 -8 13 10 15 7 12 -20 -5 -40 -4 -98 2 -107 3 -4 -5 -21 -17 -36 -18
-23 -19 -26 -4 -14 17 13 19 13 14 0 -3 -10 -15 -14 -32 -12 -15 2 -35 -3 -44
-10 -12 -10 -14 -10 -8 0 4 7 2 12 -4 12 -6 0 -8 5 -4 12 4 7 3 8 -5 4 -6 -4
-9 -11 -6 -16 3 -5 1 -11 -5 -15 -5 -3 -10 -2 -10 3 0 6 -7 13 -16 16 -8 3
-13 2 -10 -3 3 -5 -1 -12 -10 -15 -8 -3 -13 -2 -10 3 3 5 -1 12 -10 15 -8 3
-12 2 -9 -3 3 -5 1 -12 -5 -16 -5 -3 -10 -2 -10 3 0 6 -14 9 -31 8 -18 -1 -34
4 -39 13 -7 11 -9 12 -10 3 0 -7 -5 -10 -12 -6 -6 4 -8 3 -5 -3 4 -6 0 -14 -9
-17 -8 -3 -13 -2 -10 3 3 5 -3 11 -14 14 -11 3 -18 2 -15 -3 3 -4 -2 -11 -11
-14 -8 -3 -13 -2 -10 3 3 5 -1 11 -9 15 -8 3 -14 2 -14 -2 3 -21 -3 -24 -17
-6 -8 10 -13 14 -10 8 3 -7 -1 -15 -10 -18 -8 -3 -13 -2 -9 3 3 5 -10 8 -27 7
-18 -1 -45 2 -61 6 -15 3 -25 3 -22 -2 3 -4 -2 -11 -11 -14 -8 -3 -13 -2 -10
3 3 5 -1 12 -10 15 -8 3 -12 2 -9 -3 3 -5 1 -12 -5 -16 -5 -3 -10 -2 -10 3 0
6 -7 13 -16 16 -8 3 -13 2 -10 -3 3 -5 -1 -12 -10 -15 -8 -3 -13 -2 -10 2 3 4
-5 14 -17 22 -20 12 -21 12 -9 -3 9 -10 10 -17 2 -22 -5 -3 -10 -2 -10 3 0 5
-12 8 -27 8 -16 -1 -38 2 -51 6 -13 5 -21 4 -18 -1 3 -5 -1 -12 -10 -15 -8 -3
-13 -2 -10 3 3 5 -3 11 -14 14 -11 3 -18 2 -15 -3 3 -4 -2 -10 -10 -14 -8 -3
-17 0 -21 6 -5 7 -2 8 6 3 9 -6 11 -4 5 5 -6 10 -11 9 -22 -5 -12 -18 -19 -10
-14 18 1 5 -3 5 -9 2 -6 -4 -9 -14 -6 -22 4 -9 2 -11 -7 -6 -6 4 -28 8 -47 9
-19 1 -35 3 -35 4 0 1 -8 3 -18 5 -9 2 -15 0 -12 -5 3 -4 -2 -11 -11 -14 -8
-3 -13 -2 -10 3 3 5 -3 11 -14 14 -11 3 -18 2 -15 -3 3 -4 -2 -11 -11 -14 -8
-3 -13 -2 -10 3 3 5 -5 9 -19 9 -14 0 -22 -4 -20 -8 7 -11 -22 -6 -32 5 -4 4
-3 5 3 2 6 -3 11 0 11 8 0 10 -4 12 -12 5 -7 -5 -16 -6 -20 -2 -5 4 -5 2 -2
-4 4 -7 0 -15 -9 -18 -8 -3 -13 -2 -10 3 3 5 -3 11 -14 14 -11 3 -18 2 -15 -3
3 -4 -2 -11 -11 -14 -8 -3 -13 -2 -10 3 3 5 -5 9 -19 9 -16 0 -22 -5 -18 -12
4 -6 -1 -5 -10 3 -9 7 -14 18 -10 25 4 7 1 6 -9 -1 -8 -7 -19 -9 -23 -5 -5 4
-5 2 -2 -4 4 -7 0 -15 -9 -18 -8 -3 -13 -2 -10 3 3 5 -3 11 -14 14 -11 3 -18
2 -15 -3 3 -4 -2 -11 -11 -14 -8 -3 -13 -2 -10 3 3 5 -5 9 -19 9 -16 0 -22 -5
-18 -12 4 -6 -1 -5 -10 3 -9 7 -14 18 -10 25 4 7 1 6 -9 -1 -8 -7 -19 -9 -23
-5 -5 4 -5 2 -2 -4 4 -7 0 -15 -9 -18 -8 -3 -13 -2 -10 3 3 5 -3 11 -14 14
-11 3 -18 2 -15 -3 3 -4 -2 -11 -11 -14 -8 -3 -13 -2 -10 3 3 5 -5 9 -19 9
-16 0 -22 -5 -18 -12 4 -6 -1 -5 -10 3 -9 7 -14 18 -10 25 4 6 -1 5 -10 -2 -9
-8 -22 -10 -28 -6 -7 4 -9 3 -6 -3 4 -6 0 -14 -9 -17 -8 -3 -13 -2 -10 3 3 5
-1 12 -10 15 -8 3 -12 2 -9 -3 3 -5 1 -12 -5 -16 -5 -3 -10 -2 -10 3 0 6 -7
13 -16 16 -8 3 -13 2 -10 -3 3 -5 -1 -11 -9 -15 -8 -3 -17 0 -21 6 -4 6 -3 8
3 5 5 -3 10 1 10 10 0 12 -5 11 -19 -7 -10 -12 -18 -18 -18 -13 0 6 -12 9 -27
9 -16 -1 -39 2 -52 6 -19 7 -22 6 -17 -9 6 -14 4 -14 -15 3 -12 10 -19 13 -14
5 6 -10 2 -12 -16 -7 -13 3 -18 3 -11 0 18 -8 4 -24 -16 -18 -10 4 -13 3 -6
-3 18 -14 23 -41 14 -73 -5 -17 -5 -28 -1 -25 5 2 7 -6 7 -18 -1 -12 3 -28 8
-36 8 -11 8 -13 -1 -7 -9 5 -13 -1 -13 -19 0 -14 -4 -24 -9 -20 -5 3 -13 0
-17 -6 -4 -8 -3 -9 5 -5 6 4 14 0 17 -8 3 -9 10 -13 15 -10 5 3 9 -3 9 -13 0
-10 3 -14 8 -8 6 9 38 12 60 5 4 -1 12 -1 17 0 47 10 56 10 49 -1 -5 -8 -3 -9
7 -3 21 12 119 13 119 0 0 -8 3 -8 8 -1 6 10 20 11 40 5 4 -1 12 -1 17 0 47
10 56 10 49 -1 -5 -8 -3 -9 7 -3 21 12 119 13 119 0 0 -8 3 -8 8 -1 6 10 20
11 40 5 4 -1 12 -1 17 0 47 10 56 10 49 -1 -5 -8 -3 -9 7 -3 21 12 119 13 119
0 0 -8 3 -8 8 -1 6 10 20 11 40 5 4 -1 12 -1 17 0 49 10 56 10 49 -2 -6 -10
-4 -10 7 -2 17 12 98 12 118 0 9 -6 12 -5 8 0 -7 12 133 11 152 -1 9 -5 12 -4
8 2 -5 8 104 11 123 3 3 -1 10 -1 15 0 47 10 56 10 49 -1 -5 -8 -3 -9 7 -3 21
12 119 13 119 0 0 -8 3 -8 8 -1 6 10 20 11 40 5 4 -1 12 -1 17 0 47 10 56 10
49 -1 -5 -8 -3 -9 7 -3 21 12 119 13 119 0 0 -8 3 -8 8 -1 6 10 20 11 40 5 4
-1 12 -1 17 0 49 10 56 10 49 -2 -6 -10 -4 -10 7 -2 17 12 98 12 118 0 9 -6
12 -5 8 0 -7 12 133 11 152 -1 9 -5 12 -4 8 2 -4 6 11 9 42 8 38 -1 48 1 44
12 -3 7 0 13 7 13 6 0 8 5 3 13 -13 21 -14 49 -1 41 7 -5 8 -3 3 5 -12 20 -14
122 -2 114 6 -3 7 -1 3 6 -14 22 -17 63 -5 55 8 -4 9 -3 5 5 -14 22 -17 63 -5
55 8 -4 9 -3 5 5 -14 22 -17 83 -5 75 7 -4 10 -3 7 2 -4 5 -9 26 -12 47 -4 28
-3 36 6 31 7 -4 8 -3 4 5 -14 22 -17 63 -5 55 8 -4 9 -3 5 5 -14 22 -17 63 -5
55 8 -4 9 -3 5 5 -14 22 -17 63 -5 55 8 -4 9 -3 5 5 -14 22 -17 63 -5 55 8 -4
9 -3 5 5 -14 22 -17 63 -5 55 8 -4 9 -3 5 5 -14 22 -17 63 -5 55 8 -4 9 -3 5
5 -14 22 -17 63 -5 55 8 -4 9 -3 5 5 -14 22 -17 63 -5 55 8 -5 9 -3 4 6 -12
20 -13 160 -2 153 6 -3 7 -1 3 6 -14 21 -18 63 -5 56 8 -5 8 -2 2 11 -5 11 -8
31 -7 46 2 19 -3 27 -17 31 -10 3 -19 1 -19 -5 0 -5 -6 -6 -12 -1 -18 11 -148
10 -148 -1 0 -4 -7 -2 -17 5 -20 17 -17 18 -42 -5 -20 -18 -20 -20 -4 -39 17
-20 17 -20 -2 -14 -18 6 -18 6 -3 -6 15 -12 15 -14 0 -25 -9 -7 -12 -10 -6 -7
7 3 14 -7 16 -25 2 -16 1 -27 -3 -25 -14 9 -16 -21 -3 -40 12 -16 12 -22 -2
-43 -9 -13 -11 -21 -5 -18 7 4 10 -6 8 -31 -1 -21 2 -44 6 -50 5 -9 3 -13 -7
-13 -19 0 -21 -16 -4 -26 7 -5 8 -3 3 6 -5 9 -4 11 4 6 9 -6 8 -14 -4 -33 -10
-14 -13 -23 -7 -19 5 3 12 -4 15 -15 4 -16 2 -19 -10 -15 -12 5 -13 3 -6 -6
12 -17 15 -60 2 -53 -5 4 -9 3 -9 -2 0 -4 -11 -9 -25 -9 -14 -1 -23 1 -21 5 2
3 -7 6 -20 6 -13 0 -24 -3 -24 -7 0 -5 -5 -8 -11 -8 -5 0 -8 4 -5 8 2 4 -4 8
-15 8 -10 0 -19 -5 -19 -10 0 -6 -5 -5 -11 1 -7 7 -21 8 -40 3 -16 -5 -29 -5
-29 -1 0 4 -7 8 -15 8 -8 0 -12 -4 -9 -9 3 -4 1 -8 -5 -8 -5 0 -12 6 -14 13
-4 9 -6 9 -6 -1 -1 -10 -6 -10 -21 -2 -14 7 -20 7 -20 0 0 -5 -5 -10 -11 -10
-5 0 -7 4 -4 10 4 6 -2 7 -17 1 -15 -5 -31 -5 -41 0 -12 7 -17 6 -17 -3 0 -9
-3 -9 -10 2 -5 8 -10 11 -10 5 0 -5 -24 -10 -54 -10 -30 0 -52 3 -50 7 2 4 -9
3 -25 -2 -21 -6 -31 -5 -35 3 -3 8 -5 8 -5 -1 -1 -10 -6 -10 -23 -1 -13 7 -25
11 -28 10 -3 -2 -12 -7 -20 -11 -9 -5 -25 -2 -40 7 -14 8 -18 12 -8 9 17 -5
19 17 3 31 -4 5 -5 1 0 -7 5 -8 4 -12 0 -7 -12 10 -15 38 -4 31 5 -3 9 0 9 5
0 6 -4 11 -8 11 -10 0 -8 56 4 85 7 18 6 19 -11 5 -17 -14 -17 -14 -5 7 8 12
18 19 23 16 5 -3 4 4 -2 14 -6 11 -7 23 -4 27 3 3 2 6 -4 6 -5 0 -10 7 -10 15
0 12 3 12 16 2 12 -9 11 -5 -3 17 -10 16 -14 26 -8 22 5 -3 10 6 10 19 0 22
-3 24 -16 13 -13 -12 -14 -11 -2 9 8 12 18 19 23 16 5 -3 4 3 -1 14 -7 11 -7
25 -1 35 6 11 5 19 -2 24 -7 4 -9 3 -5 -4 3 -6 2 -13 -3 -16 -11 -7 -9 13 2
32 5 6 6 16 3 21 -4 5 0 12 6 14 10 4 10 6 0 6 -7 1 -11 5 -8 10 3 5 -1 12
-10 15 -8 3 -12 2 -9 -4 3 -6 1 -10 -4 -10 -6 0 -11 4 -11 9 0 12 -33 9 -42
-4 -5 -7 -8 -7 -8 0 0 6 -31 10 -75 10 -41 0 -75 -3 -75 -7z"/>
<path d="M4765 3211 c-3 -5 -2 -12 3 -15 5 -3 9 1 9 9 0 17 -3 19 -12 6z"/>
<path d="M4487 3129 c7 -7 15 -10 18 -7 3 3 -2 9 -12 12 -14 6 -15 5 -6 -5z"/>
<path d="M1313 3063 c0 -9 4 -10 14 -2 7 6 13 12 13 14 0 1 -6 2 -13 2 -8 0
-14 -6 -14 -14z"/>
<path d="M1315 2990 c3 -5 8 -10 11 -10 2 0 4 5 4 10 0 6 -5 10 -11 10 -5 0
-7 -4 -4 -10z"/>
<path d="M4487 2889 c7 -7 15 -10 18 -7 3 3 -2 9 -12 12 -14 6 -15 5 -6 -5z"/>
<path d="M350 2611 c0 -6 4 -13 10 -16 6 -3 7 1 4 9 -7 18 -14 21 -14 7z"/>
<path d="M2285 2539 c-10 -15 3 -25 16 -12 7 7 7 13 1 17 -6 3 -14 1 -17 -5z"/>
<path d="M3516 2523 c-6 -14 -5 -15 5 -6 7 7 10 15 7 18 -3 3 -9 -2 -12 -12z"/>
<path d="M3515 2450 c-3 -5 -1 -10 4 -10 6 0 11 5 11 10 0 6 -2 10 -4 10 -3 0
-8 -4 -11 -10z"/>
</g>
</svg>
